<mxfile host="app.diagrams.net" modified="2024-06-03T07:33:28.144Z" agent="Mozilla/5.0 (Windows NT 10.0; Win64; x64) AppleWebKit/537.36 (KHTML, like Gecko) Chrome/125.0.0.0 Safari/537.36" version="23.0.1" etag="MyYJf53V-UoPMtpEsO8I" type="github">
  <diagram name="第 1 页" id="zuDnoThSKm5jyti0MEzp">
    <mxGraphModel>
      <root>
        <mxCell id="0" />
        <mxCell id="1" parent="0" />
      </root>
    </mxGraphModel>
  </diagram>
</mxfile>
